<svg width="24" height="24" viewBox="0 0 24 24" fill="none" xmlns="http://www.w3.org/2000/svg">
<path d="M15.9997 6.99998C15.9997 6.4477 16.4474 5.99998 16.9997 5.99998C17.552 5.99998 17.9997 6.4477 17.9997 6.99998C17.9997 7.55227 17.552 7.99998 16.9997 7.99998C16.4474 7.99998 15.9997 7.55227 15.9997 6.99998Z" fill="#121212"/>
<path fill-rule="evenodd" clip-rule="evenodd" d="M11.9997 7.24998C9.37634 7.24998 7.24969 9.37663 7.24969 12C7.24969 14.6233 9.37634 16.75 11.9997 16.75C14.623 16.75 16.7497 14.6233 16.7497 12C16.7497 9.37663 14.623 7.24998 11.9997 7.24998ZM8.74969 12C8.74969 10.2051 10.2048 8.74998 11.9997 8.74998C13.7946 8.74998 15.2497 10.2051 15.2497 12C15.2497 13.7949 13.7946 15.25 11.9997 15.25C10.2048 15.25 8.74969 13.7949 8.74969 12Z" fill="#121212"/>
<path fill-rule="evenodd" clip-rule="evenodd" d="M17.2579 2.833C13.7914 2.44556 10.208 2.44556 6.74146 2.833C4.72941 3.05788 3.10507 4.64289 2.86852 6.66542C2.45398 10.2097 2.45398 13.7903 2.86852 17.3346C3.10507 19.3571 4.72941 20.9421 6.74146 21.167C10.208 21.5544 13.7914 21.5544 17.2579 21.167C19.27 20.9421 20.8943 19.3571 21.1309 17.3346C21.5454 13.7903 21.5454 10.2097 21.1309 6.66542C20.8943 4.64289 19.27 3.05788 17.2579 2.833ZM6.90807 4.32372C10.2639 3.94865 13.7355 3.94865 17.0913 4.32372C18.4214 4.47238 19.4869 5.52199 19.641 6.83967C20.042 10.2682 20.042 13.7318 19.641 17.1603C19.4869 18.478 18.4214 19.5276 17.0913 19.6762C13.7355 20.0513 10.2639 20.0513 6.90807 19.6762C5.57797 19.5276 4.51248 18.478 4.35837 17.1603C3.95737 13.7318 3.95737 10.2682 4.35837 6.83967C4.51248 5.52199 5.57797 4.47238 6.90807 4.32372Z" fill="#121212"/>
</svg>
